<svg width="24" height="25" viewBox="0 0 24 25" fill="none" xmlns="http://www.w3.org/2000/svg">
<path d="M12 19.512C8 19.512 4.75 16.262 4.75 12.262C4.75 8.26196 8 5.01196 12 5.01196C16 5.01196 19.25 8.26196 19.25 12.262C19.25 16.262 16 19.512 12 19.512ZM12 6.51196C8.83 6.51196 6.25 9.09196 6.25 12.262C6.25 15.432 8.83 18.012 12 18.012C15.17 18.012 17.75 15.432 17.75 12.262C17.75 9.09196 15.17 6.51196 12 6.51196Z" fill="#292D32"/>
<path d="M12 23.222C11.45 23.222 11 22.812 11 22.262V22.182C11 21.632 11.45 21.182 12 21.182C12.55 21.182 13 21.632 13 22.182C13 22.732 12.55 23.222 12 23.222ZM19.14 20.402C18.88 20.402 18.63 20.302 18.43 20.112L18.3 19.982C17.91 19.592 17.91 18.962 18.3 18.572C18.69 18.182 19.32 18.182 19.71 18.572L19.84 18.702C20.23 19.092 20.23 19.722 19.84 20.112C19.65 20.302 19.4 20.402 19.14 20.402ZM4.86 20.402C4.6 20.402 4.35 20.302 4.15 20.112C3.76 19.722 3.76 19.092 4.15 18.702L4.28 18.572C4.67 18.182 5.3 18.182 5.69 18.572C6.08 18.962 6.08 19.592 5.69 19.982L5.56 20.112C5.37 20.302 5.11 20.402 4.86 20.402ZM22 13.262H21.92C21.37 13.262 20.92 12.812 20.92 12.262C20.92 11.712 21.37 11.262 21.92 11.262C22.47 11.262 22.96 11.712 22.96 12.262C22.96 12.812 22.55 13.262 22 13.262ZM2.08 13.262H2C1.45 13.262 1 12.812 1 12.262C1 11.712 1.45 11.262 2 11.262C2.55 11.262 3.04 11.712 3.04 12.262C3.04 12.812 2.63 13.262 2.08 13.262ZM19.01 6.25196C18.75 6.25196 18.5 6.15196 18.3 5.96196C17.91 5.57196 17.91 4.94196 18.3 4.55196L18.43 4.42196C18.82 4.03196 19.45 4.03196 19.84 4.42196C20.23 4.81196 20.23 5.44196 19.84 5.83196L19.71 5.96196C19.52 6.15196 19.27 6.25196 19.01 6.25196ZM4.99 6.25196C4.73 6.25196 4.48 6.15196 4.28 5.96196L4.15 5.82196C3.76 5.43196 3.76 4.80196 4.15 4.41196C4.54 4.02196 5.17 4.02196 5.56 4.41196L5.69 4.54196C6.08 4.93196 6.08 5.56196 5.69 5.95196C5.5 6.15196 5.24 6.25196 4.99 6.25196ZM12 3.30196C11.45 3.30196 11 2.89196 11 2.34196V2.26196C11 1.71196 11.45 1.26196 12 1.26196C12.55 1.26196 13 1.71196 13 2.26196C13 2.81196 12.55 3.30196 12 3.30196Z" fill="#292D32"/>
</svg>
