<svg width="24" height="25" viewBox="0 0 24 25" fill="none" xmlns="http://www.w3.org/2000/svg">
<path d="M15 23.012H9C3.57 23.012 1.25 20.692 1.25 15.262V9.26196C1.25 3.83196 3.57 1.51196 9 1.51196H15C20.43 1.51196 22.75 3.83196 22.75 9.26196V15.262C22.75 20.692 20.43 23.012 15 23.012ZM9 3.01196C4.39 3.01196 2.75 4.65196 2.75 9.26196V15.262C2.75 19.872 4.39 21.512 9 21.512H15C19.61 21.512 21.25 19.872 21.25 15.262V9.26196C21.25 4.65196 19.61 3.01196 15 3.01196H9Z" fill="black"/>
<path d="M9 11.012C7.48 11.012 6.25 9.78196 6.25 8.26196C6.25 6.74196 7.48 5.51196 9 5.51196C10.52 5.51196 11.75 6.74196 11.75 8.26196C11.75 9.78196 10.52 11.012 9 11.012ZM9 7.01196C8.31 7.01196 7.75 7.57196 7.75 8.26196C7.75 8.95196 8.31 9.51196 9 9.51196C9.69 9.51196 10.25 8.95196 10.25 8.26196C10.25 7.57196 9.69 7.01196 9 7.01196Z" fill="black"/>
<path d="M2.67002 19.962C2.43002 19.962 2.19002 19.842 2.05002 19.632C1.82002 19.292 1.91002 18.822 2.26002 18.592L7.19002 15.282C8.27002 14.552 9.76002 14.642 10.74 15.472L11.07 15.762C11.57 16.192 12.42 16.192 12.91 15.762L17.07 12.192C18.13 11.282 19.8 11.282 20.87 12.192L22.5 13.592C22.81 13.862 22.85 14.332 22.58 14.652C22.31 14.962 21.84 15.002 21.52 14.732L19.89 13.332C19.39 12.902 18.54 12.902 18.04 13.332L13.88 16.902C12.82 17.812 11.15 17.812 10.08 16.902L9.75002 16.612C9.29002 16.222 8.53002 16.182 8.02002 16.532L3.09002 19.842C2.96002 19.922 2.81002 19.962 2.67002 19.962Z" fill="black"/>
</svg>
