<svg width="24" height="25" viewBox="0 0 24 25" fill="none" xmlns="http://www.w3.org/2000/svg">
<path d="M13.4302 16.012H4.4002C3.2802 16.012 2.2602 15.432 1.6902 14.462C1.1202 13.492 1.1002 12.3319 1.6402 11.3419L6.1502 3.13196C6.7102 2.11196 7.7402 1.50195 8.9102 1.50195C10.0802 1.50195 11.1102 2.11196 11.6702 3.13196L16.1902 11.3419C16.7302 12.3219 16.7102 13.492 16.1402 14.462C15.5702 15.432 14.5502 16.012 13.4302 16.012ZM8.9102 3.01196C8.3002 3.01196 7.7602 3.33197 7.4702 3.86197L2.9602 12.072C2.6802 12.592 2.6902 13.192 2.9802 13.702C3.2802 14.212 3.8102 14.512 4.4002 14.512H13.4302C14.0202 14.512 14.5502 14.212 14.8502 13.702C15.1502 13.192 15.1602 12.592 14.8702 12.072L10.3502 3.86197C10.0602 3.33197 9.5202 3.01196 8.9102 3.01196Z" fill="black"/>
<path d="M15.5 23.012C11.5 23.012 8.25 19.762 8.25 15.762C8.25 15.582 8.26 15.402 8.27 15.222C8.29 14.822 8.62 14.512 9.02 14.512H13.43C14.02 14.512 14.55 14.212 14.85 13.702C15.15 13.192 15.16 12.592 14.87 12.072L13.59 9.74197C13.47 9.53197 13.47 9.28195 13.57 9.06195C13.67 8.84195 13.87 8.69197 14.1 8.64197C14.55 8.55197 15.02 8.51196 15.5 8.51196C19.5 8.51196 22.75 11.762 22.75 15.762C22.75 19.762 19.5 23.012 15.5 23.012ZM9.76 16.012C9.89 19.072 12.42 21.512 15.5 21.512C18.67 21.512 21.25 18.932 21.25 15.762C21.25 12.592 18.67 10.012 15.5 10.012C15.48 10.012 15.47 10.012 15.45 10.012L16.19 11.352C16.73 12.332 16.71 13.502 16.14 14.472C15.57 15.442 14.56 16.022 13.43 16.022H9.76V16.012Z" fill="black"/>
</svg>
