<svg width="24" height="25" viewBox="0 0 24 25" fill="none" xmlns="http://www.w3.org/2000/svg">
<path d="M11.1 23.012H6.9C2.99 23.012 1.25 21.272 1.25 17.362V13.162C1.25 9.25196 2.99 7.51196 6.9 7.51196H11.1C15.01 7.51196 16.75 9.25196 16.75 13.162V17.362C16.75 21.272 15.01 23.012 11.1 23.012ZM6.9 9.01196C3.8 9.01196 2.75 10.062 2.75 13.162V17.362C2.75 20.462 3.8 21.512 6.9 21.512H11.1C14.2 21.512 15.25 20.462 15.25 17.362V13.162C15.25 10.062 14.2 9.01196 11.1 9.01196H6.9Z" fill="black"/>
<path d="M17.1 17.012H16C15.59 17.012 15.25 16.672 15.25 16.262V13.162C15.25 10.062 14.2 9.01196 11.1 9.01196H8C7.59 9.01196 7.25 8.67196 7.25 8.26196V7.16196C7.25 3.25196 8.99 1.51196 12.9 1.51196H17.1C21.01 1.51196 22.75 3.25196 22.75 7.16196V11.362C22.75 15.272 21.01 17.012 17.1 17.012ZM16.75 15.512H17.1C20.2 15.512 21.25 14.462 21.25 11.362V7.16196C21.25 4.06196 20.2 3.01196 17.1 3.01196H12.9C9.8 3.01196 8.75 4.06196 8.75 7.16196V7.51196H11.1C15.01 7.51196 16.75 9.25196 16.75 13.162V15.512Z" fill="black"/>
</svg>
