<svg width="24" height="25" viewBox="0 0 24 25" fill="none" xmlns="http://www.w3.org/2000/svg">
<path d="M12.005 22.9946C6.08732 22.9946 1.27734 18.1846 1.27734 12.267C1.27734 6.34929 6.08732 1.53931 12.005 1.53931C17.9227 1.53931 22.7326 6.34929 22.7326 12.267C22.7326 18.1846 17.9127 22.9946 12.005 22.9946ZM12.005 3.03619C6.9156 3.03619 2.77423 7.17756 2.77423 12.267C2.77423 17.3564 6.9156 21.4977 12.005 21.4977C17.0944 21.4977 21.2358 17.3564 21.2358 12.267C21.2358 7.17756 17.0944 3.03619 12.005 3.03619Z" fill="black"/>
<path d="M14.3002 13.215C14.1006 13.215 13.911 13.1351 13.7713 12.9954L5.60828 4.81247C5.31889 4.52308 5.31889 4.04407 5.60828 3.75468C5.89768 3.46528 6.37668 3.46528 6.66608 3.75468L13.5617 10.6603L13.5717 7.92599C13.5717 7.51684 13.911 7.17755 14.3201 7.17755C14.7293 7.14761 15.0686 7.51684 15.0686 7.92599L15.0586 12.4665C15.0586 12.7659 14.879 13.0453 14.5996 13.1551C14.4998 13.195 14.4 13.215 14.3002 13.215Z" fill="black"/>
<path d="M17.8628 20.9888C17.6732 20.9888 17.4836 20.9189 17.3339 20.7692L10.4383 13.8636L10.4283 16.5979C10.4283 17.0071 10.089 17.3464 9.67984 17.3464C9.27069 17.3464 8.9314 17.0071 8.9314 16.5979L8.94138 12.0574C8.94138 11.758 9.121 11.4786 9.40042 11.3688C9.67984 11.2491 9.99917 11.3189 10.2187 11.5285L18.3817 19.7114C18.6711 20.0008 18.6711 20.4798 18.3817 20.7692C18.252 20.9189 18.0524 20.9888 17.8628 20.9888Z" fill="black"/>
</svg>
