<svg width="24" height="25" viewBox="0 0 24 25" fill="none" xmlns="http://www.w3.org/2000/svg">
<path d="M18.36 23.012H5.58999C4.06999 23.012 2.67999 22.242 1.87999 20.942C1.07999 19.642 1.00999 18.062 1.68999 16.692L3.40999 13.242C3.96999 12.122 4.86999 11.422 5.87999 11.312C6.88999 11.202 7.91999 11.702 8.69999 12.672L8.91999 12.952C9.35999 13.492 9.86999 13.782 10.37 13.732C10.87 13.692 11.33 13.332 11.67 12.722L13.56 9.31197C14.34 7.90197 15.38 7.17197 16.51 7.22197C17.63 7.28197 18.59 8.12197 19.23 9.60197L22.36 16.912C22.94 18.262 22.8 19.802 21.99 21.032C21.19 22.282 19.83 23.012 18.36 23.012ZM6.15999 12.812C6.11999 12.812 6.07999 12.812 6.03999 12.822C5.53999 12.872 5.07999 13.272 4.74999 13.922L3.02999 17.372C2.57999 18.262 2.62999 19.312 3.14999 20.162C3.66999 21.012 4.58999 21.522 5.58999 21.522H18.35C19.33 21.522 20.2 21.052 20.74 20.232C21.28 19.412 21.37 18.432 20.98 17.532L17.85 10.222C17.47 9.32197 16.94 8.77197 16.43 8.75197C15.96 8.72197 15.35 9.22197 14.87 10.072L12.98 13.482C12.4 14.522 11.49 15.172 10.5 15.262C9.50999 15.342 8.49999 14.862 7.74999 13.922L7.52999 13.642C7.10999 13.092 6.62999 12.812 6.15999 12.812Z" fill="black"/>
<path d="M6.96997 9.01196C4.90997 9.01196 3.21997 7.33196 3.21997 5.26196C3.21997 3.19196 4.89997 1.51196 6.96997 1.51196C9.03997 1.51196 10.72 3.19196 10.72 5.26196C10.72 7.33196 9.03997 9.01196 6.96997 9.01196ZM6.96997 3.01196C5.72997 3.01196 4.71997 4.02196 4.71997 5.26196C4.71997 6.50196 5.72997 7.51196 6.96997 7.51196C8.20997 7.51196 9.21997 6.50196 9.21997 5.26196C9.21997 4.02196 8.20997 3.01196 6.96997 3.01196Z" fill="black"/>
</svg>
